<mxfile host="app.diagrams.net" modified="2024-04-29T12:33:20.941Z" agent="Mozilla/5.0 (Windows NT 10.0; Win64; x64) AppleWebKit/537.36 (KHTML, like Gecko) Chrome/124.0.0.0 Safari/537.36" etag="pmpEQRIDIZzgw-HeCr22" version="24.2.5" type="onedrive">
  <diagram id="C5RBs43oDa-KdzZeNtuy" name="Page-1">
    <mxGraphModel grid="1" page="1" gridSize="10" guides="1" tooltips="1" connect="1" arrows="1" fold="1" pageScale="1" pageWidth="827" pageHeight="1169" math="0" shadow="0">
      <root>
        <mxCell id="WIyWlLk6GJQsqaUBKTNV-0" />
        <mxCell id="WIyWlLk6GJQsqaUBKTNV-1" parent="WIyWlLk6GJQsqaUBKTNV-0" />
        <mxCell id="XOTUOqKxcdgYUcVxQ8uJ-0" value="Simulation" style="swimlane;fontStyle=0;childLayout=stackLayout;horizontal=1;startSize=26;fillColor=none;horizontalStack=0;resizeParent=1;resizeParentMax=0;resizeLast=0;collapsible=1;marginBottom=0;whiteSpace=wrap;html=1;" vertex="1" parent="WIyWlLk6GJQsqaUBKTNV-1">
          <mxGeometry x="240" y="163" width="140" height="78" as="geometry" />
        </mxCell>
        <mxCell id="XOTUOqKxcdgYUcVxQ8uJ-1" value="+ idSimul: int" style="text;strokeColor=none;fillColor=none;align=left;verticalAlign=top;spacingLeft=4;spacingRight=4;overflow=hidden;rotatable=0;points=[[0,0.5],[1,0.5]];portConstraint=eastwest;whiteSpace=wrap;html=1;" vertex="1" parent="XOTUOqKxcdgYUcVxQ8uJ-0">
          <mxGeometry y="26" width="140" height="26" as="geometry" />
        </mxCell>
        <mxCell id="XOTUOqKxcdgYUcVxQ8uJ-2" value="+ date: date" style="text;strokeColor=none;fillColor=none;align=left;verticalAlign=top;spacingLeft=4;spacingRight=4;overflow=hidden;rotatable=0;points=[[0,0.5],[1,0.5]];portConstraint=eastwest;whiteSpace=wrap;html=1;" vertex="1" parent="XOTUOqKxcdgYUcVxQ8uJ-0">
          <mxGeometry y="52" width="140" height="26" as="geometry" />
        </mxCell>
        <mxCell id="XOTUOqKxcdgYUcVxQ8uJ-4" value="Modèles" style="swimlane;fontStyle=0;childLayout=stackLayout;horizontal=1;startSize=26;fillColor=none;horizontalStack=0;resizeParent=1;resizeParentMax=0;resizeLast=0;collapsible=1;marginBottom=0;whiteSpace=wrap;html=1;" vertex="1" parent="WIyWlLk6GJQsqaUBKTNV-1">
          <mxGeometry x="460" y="163" width="140" height="78" as="geometry" />
        </mxCell>
        <mxCell id="XOTUOqKxcdgYUcVxQ8uJ-5" value="+ ldModele: int" style="text;strokeColor=none;fillColor=none;align=left;verticalAlign=top;spacingLeft=4;spacingRight=4;overflow=hidden;rotatable=0;points=[[0,0.5],[1,0.5]];portConstraint=eastwest;whiteSpace=wrap;html=1;" vertex="1" parent="XOTUOqKxcdgYUcVxQ8uJ-4">
          <mxGeometry y="26" width="140" height="26" as="geometry" />
        </mxCell>
        <mxCell id="XOTUOqKxcdgYUcVxQ8uJ-6" value="+ Nom: varchar" style="text;strokeColor=none;fillColor=none;align=left;verticalAlign=top;spacingLeft=4;spacingRight=4;overflow=hidden;rotatable=0;points=[[0,0.5],[1,0.5]];portConstraint=eastwest;whiteSpace=wrap;html=1;" vertex="1" parent="XOTUOqKxcdgYUcVxQ8uJ-4">
          <mxGeometry y="52" width="140" height="26" as="geometry" />
        </mxCell>
        <mxCell id="XOTUOqKxcdgYUcVxQ8uJ-8" value="Hyperparamètres" style="swimlane;fontStyle=0;childLayout=stackLayout;horizontal=1;startSize=26;fillColor=none;horizontalStack=0;resizeParent=1;resizeParentMax=0;resizeLast=0;collapsible=1;marginBottom=0;whiteSpace=wrap;html=1;" vertex="1" parent="WIyWlLk6GJQsqaUBKTNV-1">
          <mxGeometry x="687" y="163" width="140" height="104" as="geometry" />
        </mxCell>
        <mxCell id="XOTUOqKxcdgYUcVxQ8uJ-9" value="+ ldParam: int" style="text;strokeColor=none;fillColor=none;align=left;verticalAlign=top;spacingLeft=4;spacingRight=4;overflow=hidden;rotatable=0;points=[[0,0.5],[1,0.5]];portConstraint=eastwest;whiteSpace=wrap;html=1;" vertex="1" parent="XOTUOqKxcdgYUcVxQ8uJ-8">
          <mxGeometry y="26" width="140" height="26" as="geometry" />
        </mxCell>
        <mxCell id="XOTUOqKxcdgYUcVxQ8uJ-10" value="+ NomParam: varchar" style="text;strokeColor=none;fillColor=none;align=left;verticalAlign=top;spacingLeft=4;spacingRight=4;overflow=hidden;rotatable=0;points=[[0,0.5],[1,0.5]];portConstraint=eastwest;whiteSpace=wrap;html=1;" vertex="1" parent="XOTUOqKxcdgYUcVxQ8uJ-8">
          <mxGeometry y="52" width="140" height="26" as="geometry" />
        </mxCell>
        <mxCell id="XOTUOqKxcdgYUcVxQ8uJ-11" value="+ Valeur: type" style="text;strokeColor=none;fillColor=none;align=left;verticalAlign=top;spacingLeft=4;spacingRight=4;overflow=hidden;rotatable=0;points=[[0,0.5],[1,0.5]];portConstraint=eastwest;whiteSpace=wrap;html=1;" vertex="1" parent="XOTUOqKxcdgYUcVxQ8uJ-8">
          <mxGeometry y="78" width="140" height="26" as="geometry" />
        </mxCell>
        <mxCell id="XOTUOqKxcdgYUcVxQ8uJ-18" value="Metrics" style="swimlane;fontStyle=0;childLayout=stackLayout;horizontal=1;startSize=26;fillColor=none;horizontalStack=0;resizeParent=1;resizeParentMax=0;resizeLast=0;collapsible=1;marginBottom=0;whiteSpace=wrap;html=1;" vertex="1" parent="WIyWlLk6GJQsqaUBKTNV-1">
          <mxGeometry x="10" y="144" width="150" height="110" as="geometry" />
        </mxCell>
        <mxCell id="XOTUOqKxcdgYUcVxQ8uJ-19" value="+ idresult: int" style="text;strokeColor=none;fillColor=none;align=left;verticalAlign=top;spacingLeft=4;spacingRight=4;overflow=hidden;rotatable=0;points=[[0,0.5],[1,0.5]];portConstraint=eastwest;whiteSpace=wrap;html=1;" vertex="1" parent="XOTUOqKxcdgYUcVxQ8uJ-18">
          <mxGeometry y="26" width="150" height="26" as="geometry" />
        </mxCell>
        <mxCell id="XOTUOqKxcdgYUcVxQ8uJ-20" value="+ accuracy: int&lt;div&gt;&lt;br&gt;&lt;/div&gt;" style="text;strokeColor=none;fillColor=none;align=left;verticalAlign=top;spacingLeft=4;spacingRight=4;overflow=hidden;rotatable=0;points=[[0,0.5],[1,0.5]];portConstraint=eastwest;whiteSpace=wrap;html=1;" vertex="1" parent="XOTUOqKxcdgYUcVxQ8uJ-18">
          <mxGeometry y="52" width="150" height="58" as="geometry" />
        </mxCell>
        <mxCell id="XOTUOqKxcdgYUcVxQ8uJ-21" value="Plots" style="swimlane;fontStyle=0;childLayout=stackLayout;horizontal=1;startSize=26;fillColor=none;horizontalStack=0;resizeParent=1;resizeParentMax=0;resizeLast=0;collapsible=1;marginBottom=0;whiteSpace=wrap;html=1;" vertex="1" parent="WIyWlLk6GJQsqaUBKTNV-1">
          <mxGeometry x="230" y="330" width="150" height="110" as="geometry" />
        </mxCell>
        <mxCell id="XOTUOqKxcdgYUcVxQ8uJ-22" value="+ idplot: int" style="text;strokeColor=none;fillColor=none;align=left;verticalAlign=top;spacingLeft=4;spacingRight=4;overflow=hidden;rotatable=0;points=[[0,0.5],[1,0.5]];portConstraint=eastwest;whiteSpace=wrap;html=1;" vertex="1" parent="XOTUOqKxcdgYUcVxQ8uJ-21">
          <mxGeometry y="26" width="150" height="26" as="geometry" />
        </mxCell>
        <mxCell id="XOTUOqKxcdgYUcVxQ8uJ-23" value="+ chemin:&amp;nbsp; varchar&lt;div&gt;&lt;br&gt;&lt;/div&gt;" style="text;strokeColor=none;fillColor=none;align=left;verticalAlign=top;spacingLeft=4;spacingRight=4;overflow=hidden;rotatable=0;points=[[0,0.5],[1,0.5]];portConstraint=eastwest;whiteSpace=wrap;html=1;" vertex="1" parent="XOTUOqKxcdgYUcVxQ8uJ-21">
          <mxGeometry y="52" width="150" height="58" as="geometry" />
        </mxCell>
        <mxCell id="XOTUOqKxcdgYUcVxQ8uJ-30" value="" style="endArrow=open;shadow=0;strokeWidth=1;rounded=1;curved=0;endFill=1;edgeStyle=elbowEdgeStyle;elbow=vertical;labelBackgroundColor=none;fontColor=default;exitX=0.376;exitY=1.097;exitDx=0;exitDy=0;exitPerimeter=0;entryX=0.432;entryY=-0.02;entryDx=0;entryDy=0;entryPerimeter=0;" edge="1" parent="WIyWlLk6GJQsqaUBKTNV-1" source="XOTUOqKxcdgYUcVxQ8uJ-2" target="XOTUOqKxcdgYUcVxQ8uJ-21">
          <mxGeometry x="0.5" y="41" relative="1" as="geometry">
            <mxPoint x="386" y="221" as="sourcePoint" />
            <mxPoint x="459" y="221" as="targetPoint" />
            <mxPoint x="-40" y="32" as="offset" />
          </mxGeometry>
        </mxCell>
        <mxCell id="XOTUOqKxcdgYUcVxQ8uJ-31" value="0..1" style="resizable=0;align=left;verticalAlign=bottom;labelBackgroundColor=none;fontSize=12;rounded=1;" connectable="0" vertex="1" parent="XOTUOqKxcdgYUcVxQ8uJ-30">
          <mxGeometry x="-1" relative="1" as="geometry">
            <mxPoint y="4" as="offset" />
          </mxGeometry>
        </mxCell>
        <mxCell id="XOTUOqKxcdgYUcVxQ8uJ-32" value="1..*" style="resizable=0;align=right;verticalAlign=bottom;labelBackgroundColor=none;fontSize=12;rounded=1;" connectable="0" vertex="1" parent="XOTUOqKxcdgYUcVxQ8uJ-30">
          <mxGeometry x="1" relative="1" as="geometry">
            <mxPoint x="-7" y="4" as="offset" />
          </mxGeometry>
        </mxCell>
        <mxCell id="MPsx0ntdqsDpGy489uat-0" value="" style="endArrow=classic;html=1;rounded=0;exitX=0;exitY=0.5;exitDx=0;exitDy=0;" edge="1" parent="WIyWlLk6GJQsqaUBKTNV-1" source="XOTUOqKxcdgYUcVxQ8uJ-1">
          <mxGeometry width="50" height="50" relative="1" as="geometry">
            <mxPoint x="370" y="250" as="sourcePoint" />
            <mxPoint x="160" y="202" as="targetPoint" />
          </mxGeometry>
        </mxCell>
        <mxCell id="MPsx0ntdqsDpGy489uat-1" value="0..1" style="resizable=0;align=left;verticalAlign=bottom;labelBackgroundColor=none;fontSize=12;rounded=1;" connectable="0" vertex="1" parent="WIyWlLk6GJQsqaUBKTNV-1">
          <mxGeometry x="219.99600000000015" y="199" as="geometry">
            <mxPoint x="-8" y="6" as="offset" />
          </mxGeometry>
        </mxCell>
        <mxCell id="MPsx0ntdqsDpGy489uat-2" value="1..*" style="resizable=0;align=right;verticalAlign=bottom;labelBackgroundColor=none;fontSize=12;rounded=1;" connectable="0" vertex="1" parent="WIyWlLk6GJQsqaUBKTNV-1">
          <mxGeometry x="180.00000000000006" y="202.00400000000002" as="geometry" />
        </mxCell>
        <mxCell id="MPsx0ntdqsDpGy489uat-3" value="" style="endArrow=classic;html=1;rounded=0;entryX=-0.018;entryY=0.808;entryDx=0;entryDy=0;entryPerimeter=0;" edge="1" parent="WIyWlLk6GJQsqaUBKTNV-1" target="XOTUOqKxcdgYUcVxQ8uJ-5">
          <mxGeometry width="50" height="50" relative="1" as="geometry">
            <mxPoint x="380" y="210" as="sourcePoint" />
            <mxPoint x="170" y="212" as="targetPoint" />
          </mxGeometry>
        </mxCell>
        <mxCell id="MPsx0ntdqsDpGy489uat-4" value="1..*" style="resizable=0;align=right;verticalAlign=bottom;labelBackgroundColor=none;fontSize=12;rounded=1;" connectable="0" vertex="1" parent="WIyWlLk6GJQsqaUBKTNV-1">
          <mxGeometry x="440.00000000000006" y="212.00400000000002" as="geometry" />
        </mxCell>
        <mxCell id="MPsx0ntdqsDpGy489uat-5" value="0..1" style="resizable=0;align=left;verticalAlign=bottom;labelBackgroundColor=none;fontSize=12;rounded=1;" connectable="0" vertex="1" parent="WIyWlLk6GJQsqaUBKTNV-1">
          <mxGeometry x="389.99600000000015" y="202" as="geometry">
            <mxPoint x="-8" y="6" as="offset" />
          </mxGeometry>
        </mxCell>
        <mxCell id="MPsx0ntdqsDpGy489uat-8" value="" style="endArrow=classic;html=1;rounded=0;exitX=1.005;exitY=0.958;exitDx=0;exitDy=0;exitPerimeter=0;entryX=-0.006;entryY=0.993;entryDx=0;entryDy=0;entryPerimeter=0;" edge="1" parent="WIyWlLk6GJQsqaUBKTNV-1" source="XOTUOqKxcdgYUcVxQ8uJ-5" target="XOTUOqKxcdgYUcVxQ8uJ-9">
          <mxGeometry width="50" height="50" relative="1" as="geometry">
            <mxPoint x="600" y="211.09" as="sourcePoint" />
            <mxPoint x="680" y="211" as="targetPoint" />
          </mxGeometry>
        </mxCell>
        <mxCell id="MPsx0ntdqsDpGy489uat-12" value="0..1" style="resizable=0;align=left;verticalAlign=bottom;labelBackgroundColor=none;fontSize=12;rounded=1;" connectable="0" vertex="1" parent="WIyWlLk6GJQsqaUBKTNV-1">
          <mxGeometry x="399.99600000000015" y="212" as="geometry">
            <mxPoint x="195" y="6" as="offset" />
          </mxGeometry>
        </mxCell>
        <mxCell id="MPsx0ntdqsDpGy489uat-13" value="1..*" style="resizable=0;align=right;verticalAlign=bottom;labelBackgroundColor=none;fontSize=12;rounded=1;" connectable="0" vertex="1" parent="WIyWlLk6GJQsqaUBKTNV-1">
          <mxGeometry x="680" y="215.00400000000002" as="geometry" />
        </mxCell>
      </root>
    </mxGraphModel>
  </diagram>
</mxfile>
